PathFileType	4	(X/Y/Z)	C:/Users/beibeiliu/ov580/test_trc/User1\sequence.26_training_dense_right.trc
DataRate	CameraRate	NumFrames	NumMarkers	Units	OrigDataRate	OrigDataStartFrame	OrigNumFrames
120	120	16	19	mm	120	28	83
Frame#	Time	ThumbCMC			ThumbMCP			ThumbIP			ThumbTip			IndexMCP			IndexPIP			IndexTip			MiddleMCP			MiddlePIP			MiddleTip			RingMCP			RingPIP			RingTip			PinkyMCP			PinkyPIP			PinkyTip			BackHand1			BackHand2			BackHand3	
		X0	Y0	Z0	X1	Y1	Z1	X2	Y2	Z2	X3	Y3	Z3	X4	Y4	Z4	X5	Y5	Z5	X6	Y6	Z6	X7	Y7	Z7	X8	Y8	Z8	X9	Y9	Z9	X10	Y10	Z10	X11	Y11	Z11	X12	Y12	Z12	X13	Y13	Z13	X14	Y14	Z14	X15	Y15	Z15	X16	Y16	Z16	X17	Y17	Z17	X18	Y18	Z18	
27	0.225	100.315	11.0631	96.9394	76.8	-8.38575	71.56	65.5264	-18.1741	52.342	57.6374	-32.9054	30.1293	121.678	18.6366	11.499	117.74	9.91946	-13.3167	114.68	-15.6666	-34.5334	148.338	14.4289	11.8061	150.601	3.12908	-20.8085	140.977	-15.3602	-44.0439	171.138	2.9177	19.773	173.172	-3.70484	-7.9801	165.869	-22.1056	-34.7421	183.142	-18.0258	38.0932	181.817	-21.6239	12.8961	181.152	-27.8985	-11.3123	163.894	8.62775	74.1514	168.996	11.0449	105.853	138.621	26.6113	90.1977	
28	0.233333	96.6318	12.7218	98.5741	80.9787	-8.31883	72.4727	69.6134	-19.1007	50.3291	62.4438	-32.787	31.0187	121.021	20.1317	14.2696	119.181	7.24065	-14.7787	116.389	-12.0499	-31.0945	148.022	15.2409	7.50056	148.653	5.49566	-19.789	141.261	-20.8536	-46.8999	168.921	2.764	21.9535	171.342	-0.77322	-8.23482	164.328	-19.1752	-34.4316	179.788	-15.5373	37.9789	185.512	-21.8821	15.8722	183.649	-26.721	-11.1072	168.442	8.42741	77.2773	167.626	14.0662	105.369	138.97	29.5017	87.7484	
29	0.241667	97.7688	12.8007	95.2445	80.631	-7.16987	75.0341	66.3627	-17.15	46.5822	60.4284	-32.4898	28.2729	121.938	20.2242	12.2276	117.558	9.71746	-14.2847	111.471	-8.90454	-31.6001	152.193	14.5632	10.4005	149.427	4.43105	-20.4458	142.048	-15.722	-43.3891	168.277	3.94518	20.8104	171.164	-1.97681	-9.37121	166.94	-20.9587	-34.7657	177.917	-15.0275	38.108	185.427	-19.7867	16.9087	182.452	-24.7768	-9.44401	163.576	11.4808	73.5947	165.778	13.3163	108.347	137.146	30.7281	87.7113	
30	0.25	100.929	12.6272	99.6529	76.8279	-5.33431	75.0582	71.4196	-17.5098	48.966	60.7726	-30.978	32.0939	118.874	23.5327	16.9118	118.971	8.34985	-15.3505	115.201	-9.94769	-30.9818	152.158	14.3243	7.74949	151.002	4.06803	-20.3568	142.617	-19.361	-45.803	169.844	4.36737	22.3357	174.008	-3.44906	-8.85868	163.943	-17.3319	-32.0505	179.994	-16.4941	39.9705	185.086	-21.4011	14.35	185.571	-24.4089	-8.64405	169.435	10.3037	76.7962	168.595	13.0147	107.366	139.751	30.1422	89.1861	
31	0.258333	99.6396	13.2563	97.0359	76.0981	-6.28659	72.6903	71.5413	-16.5125	48.2182	60.5861	-30.2713	27.1259	121.548	21.7883	16.5923	116.411	10.701	-14.2625	111.58	-9.13424	-32.5152	149.565	15.6959	12.0896	148.391	5.52522	-19.1724	140.989	-14.2914	-44.9281	171.003	3.11815	19.0023	170.435	-2.86704	-12.2942	164.594	-18.5347	-32.9562	182.135	-16.7551	36.6037	187.496	-21.9802	15.5016	182.466	-26.4708	-13.1637	167.663	11.1378	75.6009	165.876	13.5751	106.628	134.725	30.3965	90.2716	
32	0.266667	98.6703	13.1385	98.0999	78.5434	-5.74779	72.1796	68.3313	-17.0092	46.7988	62.3338	-29.7062	30.465	118.228	23.6941	11.9626	118.074	10.7104	-13.2396	113.879	-10.515	-32.7167	150.736	15.5301	8.39472	149.25	5.66916	-21.8322	139.845	-15.203	-45.5886	168.391	6.65026	19.8194	171.449	-1.85406	-13.1822	163.997	-19.3404	-34.727	182.484	-16.8621	37.9559	183.71	-18.8343	15.9737	183.366	-24.4973	-9.45522	167.897	11.4038	76.4417	165.388	14.3497	106.791	139.185	27.8288	88.1236	
33	0.275	95.3082	15.9023	96.4146	76.0269	-4.54268	72.6748	65.9658	-16.3621	50.6858	62.3904	-28.8444	29.7548	121.392	21.8726	12.7249	120.08	10.146	-14.0001	113.945	-10.2661	-32.3261	148.676	17.849	11.0139	148.989	6.89403	-22.0224	139.867	-15.7134	-47.41	167.66	7.07582	21.7921	170.934	-0.614256	-12.3465	165.484	-17.8477	-32.5722	182.041	-15.6107	41.4678	183.669	-18.0928	16.6577	184.413	-24.874	-13.418	164.076	14.5338	76.9965	165.678	16.3817	111.239	138.38	31.5357	90.0756	
34	0.283333	96.8795	15.8076	96.9518	75.5505	-4.7086	71.0116	68.9354	-15.3304	47.922	61.3374	-27.6553	32.2295	118.664	24.166	12.472	119.864	12.419	-10.2112	113.613	-10.9956	-34.2819	148.212	19.9093	12.6488	149.838	8.87037	-18.9364	141.93	-12.2278	-42.7842	169.811	8.41509	20.5025	169.963	3.76123	-9.21968	165.393	-15.759	-31.5864	181.494	-12.9828	36.2291	184.613	-16.1976	17.2745	181.849	-20.7334	-10.1557	163.444	15.3875	77.1682	165.616	17.3594	107.577	138.389	31.3657	90.5436	
35	0.291667	94.7385	16.441	95.4214	75.6133	-3.0009	75.1681	69.8822	-13.1354	49.7909	60.7797	-26.3096	33.3976	117.206	28.0545	14.528	115.237	17.9528	-10.1082	110.314	-7.4049	-33.6465	150.601	19.8461	13.127	146.996	11.7172	-18.6348	139.459	-9.13163	-44.6596	169.266	9.60846	20.7646	170.419	4.94247	-8.46138	162.119	-13.4789	-33.2577	180.323	-11.1961	41.9324	184.305	-13.7827	17.9739	181.148	-21.6608	-12.4038	165.684	16.1354	79.0952	167.146	18.6662	109.803	136.25	31.8791	88.7969	
36	0.3	97.2405	18.7874	100.224	75.0689	0.310345	71.9654	64.1612	-9.64752	51.551	59.417	-22.1656	31.4349	116.508	31.5101	13.1602	117.792	18.439	-10.5646	110.244	0.562866	-31.1638	147.719	24.9171	8.2714	146.868	14.6627	-20.5862	142.498	-8.03407	-44.189	168.089	11.8394	21.5275	167.082	7.4718	-12.2668	163.657	-12.3333	-35.3544	177.733	-6.3393	35.7294	181.081	-10.9839	17.6115	178.797	-17.9865	-10.8046	162.169	20.2451	77.1157	164.787	20.4623	112.095	136.09	36.2363	89.6397	
37	0.308333	95.7685	23.9516	97.1457	75.6016	4.46975	76.286	63.5733	-4.73086	47.6608	56.1559	-17.6454	31.0099	119.099	34.5495	15.5331	114.023	25.5607	-11.2046	111.447	3.74557	-29.4326	143.784	30.7864	9.50598	145.186	19.835	-18.2554	136.691	-0.609256	-46.5503	165.139	17.0563	21.9458	166.661	10.4158	-11.9144	160.304	-6.04891	-34.3962	177.082	-4.58949	40.4552	182.164	-9.49677	12.219	178.174	-10.5729	-8.56265	160.485	21.6897	77.4849	162.793	25.52	107.382	134.081	40.1519	93.2676	
38	0.316667	95.9689	26.1491	101.93	72.3625	8.63046	77.6719	61.3096	-1.214	48.6036	55.1118	-14.2808	30.905	116.715	38.5845	18.2649	115.596	28.7549	-9.26075	105.668	11.0285	-31.068	145.026	33.9337	10.8095	145.233	22.6397	-18.582	136.953	1.59891	-44.7082	165.111	21.7544	22.5198	165.25	15.1264	-11.9546	158.132	1.45087	-32.697	177.484	-1.42245	38.4292	181.309	-5.25766	13.374	177.44	-7.08995	-11.8528	162.072	26.134	79.3207	166.085	27.4387	108.083	133.496	44.1015	88.8979	
39	0.325	95.7447	29.8976	100.89	71.9099	11.797	74.5385	63.1798	2.93779	49.5293	59.2267	-9.6919	30.5864	114.74	44.3923	17.0441	109.618	36.2444	-8.27275	107.031	13.3153	-29.9443	141.449	39.7599	11.4013	141.192	28.0426	-17.7751	135.223	5.96635	-41.0748	162.205	26.9627	22.2806	163.6	21.2291	-9.07973	156.962	3.52482	-32.6777	175.845	5.24668	40.5215	183.673	1.56836	16.7115	187.434	1.14339	-6.63298	162.248	28.7474	76.3775	161.77	31.3417	112.928	131.287	49.0629	94.6638	
40	0.333333	98.1643	32.6946	103.228	79.5033	16.8945	75.8146	65.9756	9.47686	51.9655	56.1112	-1.1168	31.8494	115.888	52.8713	25.2146	110.104	44.0278	-8.37634	104.81	23.3917	-25.3993	144.466	45.3354	16.2652	138.212	34.3909	-14.1187	125.749	5.07521	-37.1152	161.125	35.9251	21.9862	161.194	27.0642	-7.95354	153.644	6.71884	-28.4928	179.399	14.4138	43.6203	187.544	15.1978	21.8089	193.345	17.8971	-0.892567	161.961	38.7166	80.4611	165.603	33.5848	114.291	131.206	53.2772	96.1188	
41	0.341667	95.9476	39.4969	108.742	80.3566	27.3872	81.0378	68.9158	25.7825	54.1641	60.2917	18.5162	30.5256	117.026	68.4389	31.0922	108.483	58.9367	-0.208073	101.054	30.3354	-16.3548	140.214	59.4071	18.9917	129.029	43.1064	-10.2748	111.5	13.307	-18.4131	161.378	48.8424	22.1706	152.352	37.7969	-7.55522	139.073	14.4976	-17.2712	180.708	34.9925	42.6751	191.01	36.3568	23.306	197.103	48.2555	4.60058	168.207	47.6851	85.4223	168.339	42.9707	117.007	136.76	61.8605	102.601	
42	0.35	99.8493	49.1198	113.407	83.331	39.6397	84.8229	71.2954	41.2276	59.6608	64.3824	39.06	36.5475	108.442	85.3635	37.5055	103.399	70.2029	8.00301	92.5994	35.1715	4.53347	134.169	74.8885	23.4908	119.282	53.9195	1.84488	107.25	16.4678	10.0318	157.401	65.1475	26.2041	141.972	48.2545	-0.143945	129.531	19.1511	2.71838	182.985	54.5815	44.0691	190.102	60.3186	25.8387	197.511	73.1103	9.15812	164.869	64.9273	88.0067	171.475	56.4909	120.289	137.926	71.2568	108.36	
